<?xml version="1.0" encoding="utf-8" standalone="no"?>
<!DOCTYPE svg PUBLIC "-//W3C//DTD SVG 1.1//EN"
  "http://www.w3.org/Graphics/SVG/1.1/DTD/svg11.dtd">
<svg xmlns:xlink="http://www.w3.org/1999/xlink" width="234.706875pt" height="176.929375pt" viewBox="0 0 234.706875 176.929375" xmlns="http://www.w3.org/2000/svg" version="1.1">
 <metadata>
  <rdf:RDF xmlns:dc="http://purl.org/dc/elements/1.1/" xmlns:cc="http://creativecommons.org/ns#" xmlns:rdf="http://www.w3.org/1999/02/22-rdf-syntax-ns#">
   <cc:Work>
    <dc:type rdf:resource="http://purl.org/dc/dcmitype/StillImage"/>
    <dc:date>2024-12-30T15:45:32.807415</dc:date>
    <dc:format>image/svg+xml</dc:format>
    <dc:creator>
     <cc:Agent>
      <dc:title>Matplotlib v3.5.0, https://matplotlib.org/</dc:title>
     </cc:Agent>
    </dc:creator>
   </cc:Work>
  </rdf:RDF>
 </metadata>
 <defs>
  <style type="text/css">*{stroke-linejoin: round; stroke-linecap: butt}</style>
 </defs>
 <g id="figure_1">
  <g id="patch_1">
   <path d="M 0 176.929375 
L 234.706875 176.929375 
L 234.706875 0 
L 0 0 
z
" style="fill: #ffffff"/>
  </g>
  <g id="axes_1">
   <g id="patch_2">
    <path d="M 39.53625 140.065 
L 222.416875 140.065 
L 222.416875 7.2 
L 39.53625 7.2 
z
" style="fill: #ffffff"/>
   </g>
   <g id="matplotlib.axis_1">
    <g id="xtick_1">
     <g id="line2d_1">
      <defs>
       <path id="m7f811b9d4d" d="M 0 0 
L 0 3.5 
" style="stroke: #000000; stroke-width: 0.8"/>
      </defs>
      <g>
       <use xlink:href="#m7f811b9d4d" x="39.53625" y="140.065" style="stroke: #000000; stroke-width: 0.8"/>
      </g>
     </g>
     <g id="text_1">
      <!-- 0 -->
      <g transform="translate(36.99125 153.14375)scale(0.08 -0.08)">
       <defs>
        <path id="DejaVuSans-30" d="M 2034 4250 
Q 1547 4250 1301 3770 
Q 1056 3291 1056 2328 
Q 1056 1369 1301 889 
Q 1547 409 2034 409 
Q 2525 409 2770 889 
Q 3016 1369 3016 2328 
Q 3016 3291 2770 3770 
Q 2525 4250 2034 4250 
z
M 2034 4750 
Q 2819 4750 3233 4129 
Q 3647 3509 3647 2328 
Q 3647 1150 3233 529 
Q 2819 -91 2034 -91 
Q 1250 -91 836 529 
Q 422 1150 422 2328 
Q 422 3509 836 4129 
Q 1250 4750 2034 4750 
z
" transform="scale(0.015625)"/>
       </defs>
       <use xlink:href="#DejaVuSans-30"/>
      </g>
     </g>
    </g>
    <g id="xtick_2">
     <g id="line2d_2">
      <g>
       <use xlink:href="#m7f811b9d4d" x="85.256406" y="140.065" style="stroke: #000000; stroke-width: 0.8"/>
      </g>
     </g>
     <g id="text_2">
      <!-- 10 -->
      <g transform="translate(80.166406 153.14375)scale(0.08 -0.08)">
       <defs>
        <path id="DejaVuSans-31" d="M 794 531 
L 1825 531 
L 1825 4091 
L 703 3866 
L 703 4441 
L 1819 4666 
L 2450 4666 
L 2450 531 
L 3481 531 
L 3481 0 
L 794 0 
L 794 531 
z
" transform="scale(0.015625)"/>
       </defs>
       <use xlink:href="#DejaVuSans-31"/>
       <use xlink:href="#DejaVuSans-30" x="63.623047"/>
      </g>
     </g>
    </g>
    <g id="xtick_3">
     <g id="line2d_3">
      <g>
       <use xlink:href="#m7f811b9d4d" x="130.976562" y="140.065" style="stroke: #000000; stroke-width: 0.8"/>
      </g>
     </g>
     <g id="text_3">
      <!-- 20 -->
      <g transform="translate(125.886562 153.14375)scale(0.08 -0.08)">
       <defs>
        <path id="DejaVuSans-32" d="M 1228 531 
L 3431 531 
L 3431 0 
L 469 0 
L 469 531 
Q 828 903 1448 1529 
Q 2069 2156 2228 2338 
Q 2531 2678 2651 2914 
Q 2772 3150 2772 3378 
Q 2772 3750 2511 3984 
Q 2250 4219 1831 4219 
Q 1534 4219 1204 4116 
Q 875 4013 500 3803 
L 500 4441 
Q 881 4594 1212 4672 
Q 1544 4750 1819 4750 
Q 2544 4750 2975 4387 
Q 3406 4025 3406 3419 
Q 3406 3131 3298 2873 
Q 3191 2616 2906 2266 
Q 2828 2175 2409 1742 
Q 1991 1309 1228 531 
z
" transform="scale(0.015625)"/>
       </defs>
       <use xlink:href="#DejaVuSans-32"/>
       <use xlink:href="#DejaVuSans-30" x="63.623047"/>
      </g>
     </g>
    </g>
    <g id="xtick_4">
     <g id="line2d_4">
      <g>
       <use xlink:href="#m7f811b9d4d" x="176.696719" y="140.065" style="stroke: #000000; stroke-width: 0.8"/>
      </g>
     </g>
     <g id="text_4">
      <!-- 30 -->
      <g transform="translate(171.606719 153.14375)scale(0.08 -0.08)">
       <defs>
        <path id="DejaVuSans-33" d="M 2597 2516 
Q 3050 2419 3304 2112 
Q 3559 1806 3559 1356 
Q 3559 666 3084 287 
Q 2609 -91 1734 -91 
Q 1441 -91 1130 -33 
Q 819 25 488 141 
L 488 750 
Q 750 597 1062 519 
Q 1375 441 1716 441 
Q 2309 441 2620 675 
Q 2931 909 2931 1356 
Q 2931 1769 2642 2001 
Q 2353 2234 1838 2234 
L 1294 2234 
L 1294 2753 
L 1863 2753 
Q 2328 2753 2575 2939 
Q 2822 3125 2822 3475 
Q 2822 3834 2567 4026 
Q 2313 4219 1838 4219 
Q 1578 4219 1281 4162 
Q 984 4106 628 3988 
L 628 4550 
Q 988 4650 1302 4700 
Q 1616 4750 1894 4750 
Q 2613 4750 3031 4423 
Q 3450 4097 3450 3541 
Q 3450 3153 3228 2886 
Q 3006 2619 2597 2516 
z
" transform="scale(0.015625)"/>
       </defs>
       <use xlink:href="#DejaVuSans-33"/>
       <use xlink:href="#DejaVuSans-30" x="63.623047"/>
      </g>
     </g>
    </g>
    <g id="xtick_5">
     <g id="line2d_5">
      <g>
       <use xlink:href="#m7f811b9d4d" x="222.416875" y="140.065" style="stroke: #000000; stroke-width: 0.8"/>
      </g>
     </g>
     <g id="text_5">
      <!-- 40 -->
      <g transform="translate(217.326875 153.14375)scale(0.08 -0.08)">
       <defs>
        <path id="DejaVuSans-34" d="M 2419 4116 
L 825 1625 
L 2419 1625 
L 2419 4116 
z
M 2253 4666 
L 3047 4666 
L 3047 1625 
L 3713 1625 
L 3713 1100 
L 3047 1100 
L 3047 0 
L 2419 0 
L 2419 1100 
L 313 1100 
L 313 1709 
L 2253 4666 
z
" transform="scale(0.015625)"/>
       </defs>
       <use xlink:href="#DejaVuSans-34"/>
       <use xlink:href="#DejaVuSans-30" x="63.623047"/>
      </g>
     </g>
    </g>
    <g id="text_6">
     <!-- 时间 (min) -->
     <g transform="translate(100.976562 168.1825)scale(0.12 -0.12)">
      <defs>
       <path id="SimHei-65f6" d="M 2800 3825 
Q 3550 3800 4775 3800 
Q 4775 4550 4750 5200 
L 5275 5200 
Q 5250 4550 5250 3800 
Q 5600 3800 6000 3825 
L 6000 3350 
Q 5600 3375 5250 3375 
L 5250 25 
Q 5250 -350 4962 -450 
Q 4675 -550 4225 -600 
Q 4225 -300 3975 -25 
Q 4425 -75 4600 -50 
Q 4775 -25 4775 275 
L 4775 3375 
Q 3600 3375 2800 3350 
L 2800 3825 
z
M 3075 2475 
Q 3300 2575 3525 2700 
Q 3825 2175 4125 1575 
Q 3875 1500 3625 1350 
Q 3425 1950 3075 2475 
z
M 625 4550 
L 2575 4550 
Q 2550 3650 2550 2375 
Q 2550 1100 2575 375 
L 2075 375 
L 2075 850 
L 1125 850 
L 1125 25 
L 625 25 
Q 650 1175 650 2337 
Q 650 3500 625 4550 
z
M 1125 4125 
L 1125 2950 
L 2075 2950 
L 2075 4125 
L 1125 4125 
z
M 1125 2525 
L 1125 1275 
L 2075 1275 
L 2075 2525 
L 1125 2525 
z
" transform="scale(0.015625)"/>
       <path id="SimHei-95f4" d="M 1225 4950 
Q 1500 5150 1650 5225 
Q 1875 4925 2300 4300 
Q 2050 4175 1825 4025 
Q 1575 4525 1225 4950 
z
M 1250 500 
Q 1250 0 1275 -500 
L 775 -500 
Q 800 -25 800 525 
L 800 3100 
Q 800 3625 775 3975 
L 1275 3975 
Q 1250 3600 1250 3250 
L 1250 500 
z
M 2725 4825 
Q 3175 4800 3700 4800 
L 5600 4800 
Q 5575 4350 5575 3875 
L 5575 250 
Q 5600 -300 5287 -425 
Q 4975 -550 4600 -600 
Q 4575 -300 4400 -25 
Q 4850 -50 4987 25 
Q 5125 100 5125 350 
L 5125 4400 
L 3725 4400 
Q 3175 4400 2725 4375 
L 2725 4825 
z
M 2500 3100 
L 2500 2325 
L 3875 2325 
L 3875 3100 
L 2500 3100 
z
M 2500 1925 
L 2500 1025 
L 3875 1025 
L 3875 1925 
L 2500 1925 
z
M 2025 3500 
L 4350 3500 
Q 4325 3050 4325 2700 
L 4325 1400 
Q 4325 1075 4350 625 
L 2025 625 
Q 2050 1075 2050 1425 
L 2050 2700 
Q 2050 3050 2025 3500 
z
" transform="scale(0.015625)"/>
       <path id="SimHei-20" transform="scale(0.015625)"/>
       <path id="SimHei-28" d="M 3000 -225 
L 2725 -500 
Q 2100 100 1787 750 
Q 1475 1400 1475 2225 
Q 1475 3050 1787 3700 
Q 2100 4350 2725 4975 
L 3000 4700 
Q 2425 4150 2137 3562 
Q 1850 2975 1850 2225 
Q 1850 1475 2137 887 
Q 2425 300 3000 -225 
z
" transform="scale(0.015625)"/>
       <path id="SimHei-6d" d="M 3075 100 
L 2575 100 
L 2575 2125 
Q 2575 2275 2525 2375 
Q 2475 2475 2325 2475 
Q 2150 2475 2000 2287 
Q 1850 2100 1850 1800 
L 1850 100 
L 1350 100 
L 1350 2125 
Q 1350 2275 1300 2375 
Q 1250 2475 1100 2475 
Q 925 2475 775 2287 
Q 625 2100 625 1800 
L 625 100 
L 125 100 
L 125 2900 
L 625 2900 
L 625 2525 
Q 750 2725 925 2837 
Q 1100 2950 1300 2950 
Q 1500 2950 1637 2837 
Q 1775 2725 1825 2525 
Q 1950 2725 2112 2837 
Q 2275 2950 2475 2950 
Q 2775 2950 2925 2787 
Q 3075 2625 3075 2325 
L 3075 100 
z
" transform="scale(0.015625)"/>
       <path id="SimHei-69" d="M 1825 3700 
L 1325 3700 
L 1325 4350 
L 1825 4350 
L 1825 3700 
z
M 1825 100 
L 1325 100 
L 1325 2900 
L 1825 2900 
L 1825 100 
z
" transform="scale(0.015625)"/>
       <path id="SimHei-6e" d="M 2825 100 
L 2325 100 
L 2325 1900 
Q 2325 2200 2175 2375 
Q 2025 2550 1775 2550 
Q 1450 2550 1162 2212 
Q 875 1875 875 1375 
L 875 100 
L 375 100 
L 375 2900 
L 875 2900 
L 875 2375 
Q 1075 2650 1312 2800 
Q 1550 2950 1925 2950 
Q 2375 2950 2600 2700 
Q 2825 2450 2825 2075 
L 2825 100 
z
" transform="scale(0.015625)"/>
       <path id="SimHei-29" d="M 1700 2225 
Q 1700 1400 1387 750 
Q 1075 100 450 -500 
L 175 -225 
Q 750 300 1037 887 
Q 1325 1475 1325 2225 
Q 1325 2975 1037 3562 
Q 750 4150 175 4700 
L 450 4975 
Q 1075 4350 1387 3700 
Q 1700 3050 1700 2225 
z
" transform="scale(0.015625)"/>
      </defs>
      <use xlink:href="#SimHei-65f6"/>
      <use xlink:href="#SimHei-95f4" x="100"/>
      <use xlink:href="#SimHei-20" x="200"/>
      <use xlink:href="#SimHei-28" x="250"/>
      <use xlink:href="#SimHei-6d" x="300"/>
      <use xlink:href="#SimHei-69" x="350"/>
      <use xlink:href="#SimHei-6e" x="400"/>
      <use xlink:href="#SimHei-29" x="450"/>
     </g>
    </g>
   </g>
   <g id="matplotlib.axis_2">
    <g id="ytick_1">
     <g id="line2d_6">
      <defs>
       <path id="mfad2509c94" d="M 0 0 
L -3.5 0 
" style="stroke: #000000; stroke-width: 0.8"/>
      </defs>
      <g>
       <use xlink:href="#mfad2509c94" x="39.53625" y="140.065" style="stroke: #000000; stroke-width: 0.8"/>
      </g>
     </g>
     <g id="text_7">
      <!-- 0 -->
      <g transform="translate(27.44625 143.104375)scale(0.08 -0.08)">
       <use xlink:href="#DejaVuSans-30"/>
      </g>
     </g>
    </g>
    <g id="ytick_2">
     <g id="line2d_7">
      <g>
       <use xlink:href="#mfad2509c94" x="39.53625" y="128.52156" style="stroke: #000000; stroke-width: 0.8"/>
      </g>
     </g>
     <g id="text_8">
      <!-- 2 -->
      <g transform="translate(27.44625 131.560935)scale(0.08 -0.08)">
       <use xlink:href="#DejaVuSans-32"/>
      </g>
     </g>
    </g>
    <g id="ytick_3">
     <g id="line2d_8">
      <g>
       <use xlink:href="#mfad2509c94" x="39.53625" y="116.978119" style="stroke: #000000; stroke-width: 0.8"/>
      </g>
     </g>
     <g id="text_9">
      <!-- 4 -->
      <g transform="translate(27.44625 120.017494)scale(0.08 -0.08)">
       <use xlink:href="#DejaVuSans-34"/>
      </g>
     </g>
    </g>
    <g id="ytick_4">
     <g id="line2d_9">
      <g>
       <use xlink:href="#mfad2509c94" x="39.53625" y="105.434679" style="stroke: #000000; stroke-width: 0.8"/>
      </g>
     </g>
     <g id="text_10">
      <!-- 6 -->
      <g transform="translate(27.44625 108.474054)scale(0.08 -0.08)">
       <defs>
        <path id="DejaVuSans-36" d="M 2113 2584 
Q 1688 2584 1439 2293 
Q 1191 2003 1191 1497 
Q 1191 994 1439 701 
Q 1688 409 2113 409 
Q 2538 409 2786 701 
Q 3034 994 3034 1497 
Q 3034 2003 2786 2293 
Q 2538 2584 2113 2584 
z
M 3366 4563 
L 3366 3988 
Q 3128 4100 2886 4159 
Q 2644 4219 2406 4219 
Q 1781 4219 1451 3797 
Q 1122 3375 1075 2522 
Q 1259 2794 1537 2939 
Q 1816 3084 2150 3084 
Q 2853 3084 3261 2657 
Q 3669 2231 3669 1497 
Q 3669 778 3244 343 
Q 2819 -91 2113 -91 
Q 1303 -91 875 529 
Q 447 1150 447 2328 
Q 447 3434 972 4092 
Q 1497 4750 2381 4750 
Q 2619 4750 2861 4703 
Q 3103 4656 3366 4563 
z
" transform="scale(0.015625)"/>
       </defs>
       <use xlink:href="#DejaVuSans-36"/>
      </g>
     </g>
    </g>
    <g id="ytick_5">
     <g id="line2d_10">
      <g>
       <use xlink:href="#mfad2509c94" x="39.53625" y="93.891238" style="stroke: #000000; stroke-width: 0.8"/>
      </g>
     </g>
     <g id="text_11">
      <!-- 8 -->
      <g transform="translate(27.44625 96.930613)scale(0.08 -0.08)">
       <defs>
        <path id="DejaVuSans-38" d="M 2034 2216 
Q 1584 2216 1326 1975 
Q 1069 1734 1069 1313 
Q 1069 891 1326 650 
Q 1584 409 2034 409 
Q 2484 409 2743 651 
Q 3003 894 3003 1313 
Q 3003 1734 2745 1975 
Q 2488 2216 2034 2216 
z
M 1403 2484 
Q 997 2584 770 2862 
Q 544 3141 544 3541 
Q 544 4100 942 4425 
Q 1341 4750 2034 4750 
Q 2731 4750 3128 4425 
Q 3525 4100 3525 3541 
Q 3525 3141 3298 2862 
Q 3072 2584 2669 2484 
Q 3125 2378 3379 2068 
Q 3634 1759 3634 1313 
Q 3634 634 3220 271 
Q 2806 -91 2034 -91 
Q 1263 -91 848 271 
Q 434 634 434 1313 
Q 434 1759 690 2068 
Q 947 2378 1403 2484 
z
M 1172 3481 
Q 1172 3119 1398 2916 
Q 1625 2713 2034 2713 
Q 2441 2713 2670 2916 
Q 2900 3119 2900 3481 
Q 2900 3844 2670 4047 
Q 2441 4250 2034 4250 
Q 1625 4250 1398 4047 
Q 1172 3844 1172 3481 
z
" transform="scale(0.015625)"/>
       </defs>
       <use xlink:href="#DejaVuSans-38"/>
      </g>
     </g>
    </g>
    <g id="ytick_6">
     <g id="line2d_11">
      <g>
       <use xlink:href="#mfad2509c94" x="39.53625" y="82.347798" style="stroke: #000000; stroke-width: 0.8"/>
      </g>
     </g>
     <g id="text_12">
      <!-- 10 -->
      <g transform="translate(22.35625 85.387173)scale(0.08 -0.08)">
       <use xlink:href="#DejaVuSans-31"/>
       <use xlink:href="#DejaVuSans-30" x="63.623047"/>
      </g>
     </g>
    </g>
    <g id="ytick_7">
     <g id="line2d_12">
      <g>
       <use xlink:href="#mfad2509c94" x="39.53625" y="70.804357" style="stroke: #000000; stroke-width: 0.8"/>
      </g>
     </g>
     <g id="text_13">
      <!-- 12 -->
      <g transform="translate(22.35625 73.843732)scale(0.08 -0.08)">
       <use xlink:href="#DejaVuSans-31"/>
       <use xlink:href="#DejaVuSans-32" x="63.623047"/>
      </g>
     </g>
    </g>
    <g id="ytick_8">
     <g id="line2d_13">
      <g>
       <use xlink:href="#mfad2509c94" x="39.53625" y="59.260917" style="stroke: #000000; stroke-width: 0.8"/>
      </g>
     </g>
     <g id="text_14">
      <!-- 14 -->
      <g transform="translate(22.35625 62.300292)scale(0.08 -0.08)">
       <use xlink:href="#DejaVuSans-31"/>
       <use xlink:href="#DejaVuSans-34" x="63.623047"/>
      </g>
     </g>
    </g>
    <g id="ytick_9">
     <g id="line2d_14">
      <g>
       <use xlink:href="#mfad2509c94" x="39.53625" y="47.717476" style="stroke: #000000; stroke-width: 0.8"/>
      </g>
     </g>
     <g id="text_15">
      <!-- 16 -->
      <g transform="translate(22.35625 50.756851)scale(0.08 -0.08)">
       <use xlink:href="#DejaVuSans-31"/>
       <use xlink:href="#DejaVuSans-36" x="63.623047"/>
      </g>
     </g>
    </g>
    <g id="ytick_10">
     <g id="line2d_15">
      <g>
       <use xlink:href="#mfad2509c94" x="39.53625" y="36.174036" style="stroke: #000000; stroke-width: 0.8"/>
      </g>
     </g>
     <g id="text_16">
      <!-- 18 -->
      <g transform="translate(22.35625 39.213411)scale(0.08 -0.08)">
       <use xlink:href="#DejaVuSans-31"/>
       <use xlink:href="#DejaVuSans-38" x="63.623047"/>
      </g>
     </g>
    </g>
    <g id="ytick_11">
     <g id="line2d_16">
      <g>
       <use xlink:href="#mfad2509c94" x="39.53625" y="24.630595" style="stroke: #000000; stroke-width: 0.8"/>
      </g>
     </g>
     <g id="text_17">
      <!-- 20 -->
      <g transform="translate(22.35625 27.66997)scale(0.08 -0.08)">
       <use xlink:href="#DejaVuSans-32"/>
       <use xlink:href="#DejaVuSans-30" x="63.623047"/>
      </g>
     </g>
    </g>
    <g id="ytick_12">
     <g id="line2d_17">
      <g>
       <use xlink:href="#mfad2509c94" x="39.53625" y="13.087155" style="stroke: #000000; stroke-width: 0.8"/>
      </g>
     </g>
     <g id="text_18">
      <!-- 22 -->
      <g transform="translate(22.35625 16.12653)scale(0.08 -0.08)">
       <use xlink:href="#DejaVuSans-32"/>
       <use xlink:href="#DejaVuSans-32" x="63.623047"/>
      </g>
     </g>
    </g>
    <g id="text_19">
     <!-- 显存 (GB) -->
     <g transform="translate(16.809375 100.6325)rotate(-90)scale(0.12 -0.12)">
      <defs>
       <path id="SimHei-663e" d="M 1675 4375 
L 1675 3775 
L 4775 3775 
L 4775 4375 
L 1675 4375 
z
M 1675 3375 
L 1675 2825 
L 4775 2825 
L 4775 3375 
L 1675 3375 
z
M 1150 4775 
L 5300 4775 
Q 5275 4275 5275 3612 
Q 5275 2950 5300 2425 
L 4150 2425 
L 4150 100 
Q 5525 100 6050 125 
L 6050 -325 
Q 5525 -300 5100 -300 
L 1425 -300 
Q 875 -300 425 -325 
L 425 125 
Q 900 100 2350 100 
L 2350 2425 
L 1150 2425 
Q 1175 2950 1175 3637 
Q 1175 4325 1150 4775 
z
M 1400 525 
Q 1250 950 725 1800 
Q 975 1925 1200 2075 
Q 1675 1300 1900 825 
Q 1600 675 1400 525 
z
M 5050 2050 
Q 5325 1875 5650 1775 
Q 5475 1675 5312 1325 
Q 5150 975 5000 550 
Q 4775 675 4475 750 
Q 4925 1575 5050 2050 
z
M 2850 2425 
L 2850 100 
L 3650 100 
L 3650 2425 
L 2850 2425 
z
" transform="scale(0.015625)"/>
       <path id="SimHei-5b58" d="M 1425 2700 
Q 1400 2875 1375 3050 
L 1725 3050 
Q 2000 3400 2250 3875 
L 1625 3875 
Q 1125 3875 600 3825 
L 600 4300 
Q 1125 4275 1625 4275 
L 2425 4275 
Q 2625 4750 2725 5250 
Q 3100 5075 3350 5000 
Q 3125 4725 2950 4275 
L 5025 4275 
Q 5600 4275 6075 4300 
L 6075 3825 
Q 5600 3875 5000 3875 
L 2775 3875 
Q 2400 3150 1875 2475 
L 1875 150 
Q 1875 -250 1900 -650 
L 1400 -650 
Q 1425 -175 1425 150 
L 1425 2000 
Q 1025 1550 725 1300 
Q 575 1525 275 1700 
Q 575 1900 837 2137 
Q 1100 2375 1425 2700 
z
M 2725 3075 
Q 3100 3050 3450 3050 
L 5750 3050 
L 5750 2600 
Q 5375 2450 5112 2300 
Q 4850 2150 4575 1950 
L 4575 1600 
L 5300 1600 
Q 5725 1600 6175 1625 
L 6175 1175 
Q 5725 1200 5300 1200 
L 4575 1200 
L 4575 25 
Q 4600 -450 4287 -562 
Q 3975 -675 3575 -700 
Q 3525 -425 3400 -125 
Q 3775 -175 3950 -150 
Q 4125 -125 4125 50 
L 4125 1200 
L 3225 1200 
Q 2800 1200 2350 1175 
L 2350 1625 
Q 2800 1600 3225 1600 
L 4125 1600 
Q 4125 1900 4075 2125 
Q 4275 2225 4500 2362 
Q 4725 2500 4900 2650 
L 3475 2650 
Q 3100 2650 2725 2625 
L 2725 3075 
z
" transform="scale(0.015625)"/>
       <path id="SimHei-47" d="M 2875 50 
L 2450 50 
L 2375 400 
Q 2275 250 2062 150 
Q 1850 50 1600 50 
Q 1075 50 662 537 
Q 250 1025 250 2100 
Q 250 3275 625 3850 
Q 1000 4425 1650 4425 
Q 2225 4425 2550 4000 
Q 2875 3575 2875 2900 
L 2325 2900 
Q 2325 3425 2150 3687 
Q 1975 3950 1650 3950 
Q 1250 3950 1050 3537 
Q 850 3125 850 2150 
Q 850 1225 1100 875 
Q 1350 525 1675 525 
Q 2000 525 2187 762 
Q 2375 1000 2375 1500 
L 2375 1775 
L 1600 1775 
L 1600 2250 
L 2875 2250 
L 2875 50 
z
" transform="scale(0.015625)"/>
       <path id="SimHei-42" d="M 2975 1375 
Q 2975 650 2575 375 
Q 2175 100 1550 100 
L 300 100 
L 300 4375 
L 1600 4375 
Q 2225 4375 2537 4050 
Q 2850 3725 2850 3275 
Q 2850 2825 2637 2612 
Q 2425 2400 2200 2325 
Q 2500 2250 2737 2012 
Q 2975 1775 2975 1375 
z
M 2275 3275 
Q 2275 3600 2087 3750 
Q 1900 3900 1625 3900 
L 875 3900 
L 875 2575 
L 1600 2575 
Q 1875 2575 2075 2737 
Q 2275 2900 2275 3275 
z
M 2375 1375 
Q 2375 1775 2112 1937 
Q 1850 2100 1525 2100 
L 875 2100 
L 875 575 
L 1450 575 
Q 1900 575 2137 750 
Q 2375 925 2375 1375 
z
" transform="scale(0.015625)"/>
      </defs>
      <use xlink:href="#SimHei-663e"/>
      <use xlink:href="#SimHei-5b58" x="100"/>
      <use xlink:href="#SimHei-20" x="200"/>
      <use xlink:href="#SimHei-28" x="250"/>
      <use xlink:href="#SimHei-47" x="300"/>
      <use xlink:href="#SimHei-42" x="350"/>
      <use xlink:href="#SimHei-29" x="400"/>
     </g>
    </g>
   </g>
   <g id="line2d_18">
    <path d="M 39.53625 140.065 
L 44.108266 32.133831 
L 48.680281 32.133831 
L 53.252297 32.133831 
L 57.824312 32.133831 
L 62.396328 32.133831 
L 66.968344 32.133831 
L 71.540359 32.133831 
L 76.112375 32.133831 
L 80.684391 32.133831 
L 85.256406 32.133831 
L 89.828422 32.133831 
L 94.400437 32.133831 
L 98.972453 32.133831 
L 103.544469 32.133831 
L 108.116484 32.133831 
L 112.6885 32.133831 
L 117.260516 32.133831 
L 121.832531 32.133831 
L 126.404547 32.133831 
L 130.976562 32.133831 
L 135.548578 32.133831 
L 140.120594 32.133831 
L 144.692609 32.133831 
L 149.264625 32.133831 
L 153.836641 32.133831 
L 158.408656 32.133831 
L 162.980672 32.133831 
L 167.552687 32.133831 
L 172.124703 32.133831 
L 176.696719 32.133831 
L 181.268734 32.133831 
L 185.84075 32.133831 
L 190.412766 32.133831 
L 194.984781 32.133831 
L 199.556797 32.133831 
L 204.128812 32.133831 
L 208.700828 32.133831 
L 213.272844 32.133831 
L 217.844859 32.133831 
L 222.416875 32.133831 
" clip-path="url(#p7b4f41678b)" style="fill: none; stroke: #008000; stroke-width: 1.5; stroke-linecap: square"/>
   </g>
   <g id="line2d_19">
    <path d="M 39.53625 140.065 
L 44.108266 13.260306 
L 48.680281 13.260306 
L 53.252297 13.202589 
L 57.824312 13.202589 
L 62.396328 13.202589 
L 66.968344 13.202589 
L 71.540359 13.202589 
L 76.112375 13.202589 
L 80.684391 13.202589 
L 85.256406 13.202589 
L 89.828422 13.202589 
L 94.400437 13.202589 
L 98.972453 13.202589 
L 103.544469 13.087155 
L 108.116484 12.97172 
L 112.6885 12.97172 
L 117.260516 12.97172 
L 121.832531 12.97172 
L 126.404547 12.97172 
L 130.976562 12.97172 
L 135.548578 12.97172 
L 140.120594 12.97172 
L 144.692609 12.97172 
L 149.264625 12.97172 
L 153.836641 12.97172 
L 158.408656 12.97172 
L 162.980672 12.97172 
L 167.552687 12.97172 
L 172.124703 12.97172 
L 176.696719 12.97172 
L 181.268734 12.97172 
L 185.84075 12.97172 
L 190.412766 12.97172 
L 194.984781 12.97172 
L 199.556797 12.97172 
L 204.128812 12.97172 
L 208.700828 12.97172 
L 213.272844 12.97172 
L 217.844859 12.97172 
L 222.416875 12.97172 
" clip-path="url(#p7b4f41678b)" style="fill: none; stroke-dasharray: 5.55,2.4; stroke-dashoffset: 0; stroke: #ffa500; stroke-width: 1.5"/>
   </g>
   <g id="patch_3">
    <path d="M 39.53625 140.065 
L 39.53625 7.2 
" style="fill: none; stroke: #000000; stroke-width: 0.8; stroke-linejoin: miter; stroke-linecap: square"/>
   </g>
   <g id="patch_4">
    <path d="M 222.416875 140.065 
L 222.416875 7.2 
" style="fill: none; stroke: #000000; stroke-width: 0.8; stroke-linejoin: miter; stroke-linecap: square"/>
   </g>
   <g id="patch_5">
    <path d="M 39.53625 140.065 
L 222.416875 140.065 
" style="fill: none; stroke: #000000; stroke-width: 0.8; stroke-linejoin: miter; stroke-linecap: square"/>
   </g>
   <g id="patch_6">
    <path d="M 39.53625 7.2 
L 222.416875 7.2 
" style="fill: none; stroke: #000000; stroke-width: 0.8; stroke-linejoin: miter; stroke-linecap: square"/>
   </g>
   <g id="legend_1">
    <g id="patch_7">
     <path d="M 151.993125 136.065 
L 216.816875 136.065 
Q 218.416875 136.065 218.416875 134.465 
L 218.416875 111.78 
Q 218.416875 110.18 216.816875 110.18 
L 151.993125 110.18 
Q 150.393125 110.18 150.393125 111.78 
L 150.393125 134.465 
Q 150.393125 136.065 151.993125 136.065 
z
" style="fill: #ffffff; opacity: 0.8; stroke: #cccccc; stroke-linejoin: miter"/>
    </g>
    <g id="line2d_20">
     <path d="M 153.593125 116.65875 
L 161.593125 116.65875 
L 169.593125 116.65875 
" style="fill: none; stroke: #008000; stroke-width: 1.5; stroke-linecap: square"/>
    </g>
    <g id="text_20">
     <!-- Lightseq2 -->
     <g transform="translate(175.993125 119.45875)scale(0.08 -0.08)">
      <defs>
       <path id="DejaVuSans-4c" d="M 628 4666 
L 1259 4666 
L 1259 531 
L 3531 531 
L 3531 0 
L 628 0 
L 628 4666 
z
" transform="scale(0.015625)"/>
       <path id="DejaVuSans-69" d="M 603 3500 
L 1178 3500 
L 1178 0 
L 603 0 
L 603 3500 
z
M 603 4863 
L 1178 4863 
L 1178 4134 
L 603 4134 
L 603 4863 
z
" transform="scale(0.015625)"/>
       <path id="DejaVuSans-67" d="M 2906 1791 
Q 2906 2416 2648 2759 
Q 2391 3103 1925 3103 
Q 1463 3103 1205 2759 
Q 947 2416 947 1791 
Q 947 1169 1205 825 
Q 1463 481 1925 481 
Q 2391 481 2648 825 
Q 2906 1169 2906 1791 
z
M 3481 434 
Q 3481 -459 3084 -895 
Q 2688 -1331 1869 -1331 
Q 1566 -1331 1297 -1286 
Q 1028 -1241 775 -1147 
L 775 -588 
Q 1028 -725 1275 -790 
Q 1522 -856 1778 -856 
Q 2344 -856 2625 -561 
Q 2906 -266 2906 331 
L 2906 616 
Q 2728 306 2450 153 
Q 2172 0 1784 0 
Q 1141 0 747 490 
Q 353 981 353 1791 
Q 353 2603 747 3093 
Q 1141 3584 1784 3584 
Q 2172 3584 2450 3431 
Q 2728 3278 2906 2969 
L 2906 3500 
L 3481 3500 
L 3481 434 
z
" transform="scale(0.015625)"/>
       <path id="DejaVuSans-68" d="M 3513 2113 
L 3513 0 
L 2938 0 
L 2938 2094 
Q 2938 2591 2744 2837 
Q 2550 3084 2163 3084 
Q 1697 3084 1428 2787 
Q 1159 2491 1159 1978 
L 1159 0 
L 581 0 
L 581 4863 
L 1159 4863 
L 1159 2956 
Q 1366 3272 1645 3428 
Q 1925 3584 2291 3584 
Q 2894 3584 3203 3211 
Q 3513 2838 3513 2113 
z
" transform="scale(0.015625)"/>
       <path id="DejaVuSans-74" d="M 1172 4494 
L 1172 3500 
L 2356 3500 
L 2356 3053 
L 1172 3053 
L 1172 1153 
Q 1172 725 1289 603 
Q 1406 481 1766 481 
L 2356 481 
L 2356 0 
L 1766 0 
Q 1100 0 847 248 
Q 594 497 594 1153 
L 594 3053 
L 172 3053 
L 172 3500 
L 594 3500 
L 594 4494 
L 1172 4494 
z
" transform="scale(0.015625)"/>
       <path id="DejaVuSans-73" d="M 2834 3397 
L 2834 2853 
Q 2591 2978 2328 3040 
Q 2066 3103 1784 3103 
Q 1356 3103 1142 2972 
Q 928 2841 928 2578 
Q 928 2378 1081 2264 
Q 1234 2150 1697 2047 
L 1894 2003 
Q 2506 1872 2764 1633 
Q 3022 1394 3022 966 
Q 3022 478 2636 193 
Q 2250 -91 1575 -91 
Q 1294 -91 989 -36 
Q 684 19 347 128 
L 347 722 
Q 666 556 975 473 
Q 1284 391 1588 391 
Q 1994 391 2212 530 
Q 2431 669 2431 922 
Q 2431 1156 2273 1281 
Q 2116 1406 1581 1522 
L 1381 1569 
Q 847 1681 609 1914 
Q 372 2147 372 2553 
Q 372 3047 722 3315 
Q 1072 3584 1716 3584 
Q 2034 3584 2315 3537 
Q 2597 3491 2834 3397 
z
" transform="scale(0.015625)"/>
       <path id="DejaVuSans-65" d="M 3597 1894 
L 3597 1613 
L 953 1613 
Q 991 1019 1311 708 
Q 1631 397 2203 397 
Q 2534 397 2845 478 
Q 3156 559 3463 722 
L 3463 178 
Q 3153 47 2828 -22 
Q 2503 -91 2169 -91 
Q 1331 -91 842 396 
Q 353 884 353 1716 
Q 353 2575 817 3079 
Q 1281 3584 2069 3584 
Q 2775 3584 3186 3129 
Q 3597 2675 3597 1894 
z
M 3022 2063 
Q 3016 2534 2758 2815 
Q 2500 3097 2075 3097 
Q 1594 3097 1305 2825 
Q 1016 2553 972 2059 
L 3022 2063 
z
" transform="scale(0.015625)"/>
       <path id="DejaVuSans-71" d="M 947 1747 
Q 947 1113 1208 752 
Q 1469 391 1925 391 
Q 2381 391 2643 752 
Q 2906 1113 2906 1747 
Q 2906 2381 2643 2742 
Q 2381 3103 1925 3103 
Q 1469 3103 1208 2742 
Q 947 2381 947 1747 
z
M 2906 525 
Q 2725 213 2448 61 
Q 2172 -91 1784 -91 
Q 1150 -91 751 415 
Q 353 922 353 1747 
Q 353 2572 751 3078 
Q 1150 3584 1784 3584 
Q 2172 3584 2448 3432 
Q 2725 3281 2906 2969 
L 2906 3500 
L 3481 3500 
L 3481 -1331 
L 2906 -1331 
L 2906 525 
z
" transform="scale(0.015625)"/>
      </defs>
      <use xlink:href="#DejaVuSans-4c"/>
      <use xlink:href="#DejaVuSans-69" x="55.712891"/>
      <use xlink:href="#DejaVuSans-67" x="83.496094"/>
      <use xlink:href="#DejaVuSans-68" x="146.972656"/>
      <use xlink:href="#DejaVuSans-74" x="210.351562"/>
      <use xlink:href="#DejaVuSans-73" x="249.560547"/>
      <use xlink:href="#DejaVuSans-65" x="301.660156"/>
      <use xlink:href="#DejaVuSans-71" x="363.183594"/>
      <use xlink:href="#DejaVuSans-32" x="426.660156"/>
     </g>
    </g>
    <g id="line2d_21">
     <path d="M 153.593125 128.40125 
L 161.593125 128.40125 
L 169.593125 128.40125 
" style="fill: none; stroke-dasharray: 5.55,2.4; stroke-dashoffset: 0; stroke: #ffa500; stroke-width: 1.5"/>
    </g>
    <g id="text_21">
     <!-- Fairseq -->
     <g transform="translate(175.993125 131.20125)scale(0.08 -0.08)">
      <defs>
       <path id="DejaVuSans-46" d="M 628 4666 
L 3309 4666 
L 3309 4134 
L 1259 4134 
L 1259 2759 
L 3109 2759 
L 3109 2228 
L 1259 2228 
L 1259 0 
L 628 0 
L 628 4666 
z
" transform="scale(0.015625)"/>
       <path id="DejaVuSans-61" d="M 2194 1759 
Q 1497 1759 1228 1600 
Q 959 1441 959 1056 
Q 959 750 1161 570 
Q 1363 391 1709 391 
Q 2188 391 2477 730 
Q 2766 1069 2766 1631 
L 2766 1759 
L 2194 1759 
z
M 3341 1997 
L 3341 0 
L 2766 0 
L 2766 531 
Q 2569 213 2275 61 
Q 1981 -91 1556 -91 
Q 1019 -91 701 211 
Q 384 513 384 1019 
Q 384 1609 779 1909 
Q 1175 2209 1959 2209 
L 2766 2209 
L 2766 2266 
Q 2766 2663 2505 2880 
Q 2244 3097 1772 3097 
Q 1472 3097 1187 3025 
Q 903 2953 641 2809 
L 641 3341 
Q 956 3463 1253 3523 
Q 1550 3584 1831 3584 
Q 2591 3584 2966 3190 
Q 3341 2797 3341 1997 
z
" transform="scale(0.015625)"/>
       <path id="DejaVuSans-72" d="M 2631 2963 
Q 2534 3019 2420 3045 
Q 2306 3072 2169 3072 
Q 1681 3072 1420 2755 
Q 1159 2438 1159 1844 
L 1159 0 
L 581 0 
L 581 3500 
L 1159 3500 
L 1159 2956 
Q 1341 3275 1631 3429 
Q 1922 3584 2338 3584 
Q 2397 3584 2469 3576 
Q 2541 3569 2628 3553 
L 2631 2963 
z
" transform="scale(0.015625)"/>
      </defs>
      <use xlink:href="#DejaVuSans-46"/>
      <use xlink:href="#DejaVuSans-61" x="48.394531"/>
      <use xlink:href="#DejaVuSans-69" x="109.673828"/>
      <use xlink:href="#DejaVuSans-72" x="137.457031"/>
      <use xlink:href="#DejaVuSans-73" x="178.570312"/>
      <use xlink:href="#DejaVuSans-65" x="230.669922"/>
      <use xlink:href="#DejaVuSans-71" x="292.193359"/>
     </g>
    </g>
   </g>
  </g>
 </g>
 <defs>
  <clipPath id="p7b4f41678b">
   <rect x="39.53625" y="7.2" width="182.880625" height="132.865"/>
  </clipPath>
 </defs>
</svg>
